<?xml version="1.0" encoding="UTF-8"?>
<svg id="_レイヤー_1" data-name="レイヤー_1" xmlns="http://www.w3.org/2000/svg" version="1.1" viewBox="0 0 385.62 48.23">
  <!-- Generator: Adobe Illustrator 30.3.0, SVG Export Plug-In . SVG Version: 2.1.3 Build 157)  -->
  <defs>
    <style>
      .st0 {
        fill: #231916;
      }
    </style>
  </defs>
  <g>
    <path class="st0" d="M186.25.37c1.99,0,5.24.15,7.39.15,2.88,0,7.98-.29,9.75-.29s2.29.37,2.29.89c0,.67-.89,1.18-1.63,1.4-3.99.96-4.58,2.07-4.65,2.95-.52,3.69-.52,11.15-.52,22.08,0,5.1.08,11.15.37,13.66.15,1.77,2.36,2.81,2.66,2.88,1.4.22,4.06.37,6.13.37,1.63,0,3.99-.07,5.32-.37.67-.15,1.48-.29,2.29-1.03.96-.96,2.73-2.66,4.65-5.76.66-.96,1.48-1.48,1.99-1.48s.59.81.3,1.99c-.81,2.59-1.92,6.65-2.36,8.72-.15.44-1.4,1.26-1.7,1.26-1.11,0-7.68-.52-22.68-.52-3.55,0-8.64.44-10.93.44-1.33,0-2.22-.3-2.22-.96,0-.52.66-1.18,1.85-1.4,4.06-.74,4.73-2.07,5.1-5.32.15-1.85.37-9.6.37-20.24,0-7.16,0-10.05-.08-12.48-.07-2.51-.44-3.69-3.84-4.51-1.4-.37-2.07-.89-2.07-1.4,0-.74.89-1.03,2.22-1.03Z"/>
    <path class="st0" d="M249.41,21.2c.88,1.18,1.63,3.03,1.63,6.35,0,2.88-.3,11.67-.3,12.48,0,2.07,1.48,2.95,2.73,2.95.37,0,1.85-.59,2.59-.89.22-.15.29-.07.44.07.15.29.22.81.22,1.03,0,1.4-3.47,5.02-7.61,5.02-2.14,0-4.43-.67-5.54-3.55-.07-.3-.52-.44-.67-.3-1.85,1.33-4.88,2.66-5.84,3.1-.81.3-2.29.59-3.25.59-2.73,0-5.69-3.32-5.69-7.46,0-1.33.59-2.73,1.33-3.77.74-1.03,2-1.48,2.66-1.77,1.62-.67,8.35-2.51,10.04-3.03.89-.29,1.33-.81,1.33-1.11.07-.67.22-4.73.15-5.69-.07-1.77-1.63-4.73-4.95-4.73-1.03,0-1.84.15-2.36.52-.29.15-.44.89-.44,3.4,0,.29-.15.52-.3.66-.52.52-6.06,2.96-6.5,2.96s-.96-.59-.96-1.03c0-2.14,1.63-4.14,6.2-7.09,2.73-1.77,6.35-2.73,7.39-2.73,4.51,0,6.57,2.36,7.68,3.99ZM242.46,42.77c.37-.22.67-1.11.67-1.4.15-1.03.29-4.14.29-6.57,0-.29-.29-.74-.52-.74-1.25,0-4.65,1.11-5.98,1.92-.89.66-1.33,1.03-1.33,2.95,0,3.25,2.66,4.73,4.06,4.73.67,0,2.14-.44,2.81-.89Z"/>
    <path class="st0" d="M298.45,20.76c-.22.07-.15.66.07.66,5.1,2.14,8.86,5.84,8.86,12.19,0,4.88-2.73,8.35-6.28,10.71-3.55,2.51-10.27,3.25-13.22,3.25-2.07,0-10.19-.15-13.52-.22-2.66-.07-4.43.07-5.61.07-1.33,0-2.36-.52-2.36-1.18s1.26-1.11,2.07-1.25c4.51-.89,4.8-1.99,5.1-4.51.15-1.55.59-8.94.59-23.56,0-6.28-.22-10.05-.44-11.08-.37-1.62-.81-2.22-4.65-2.95-.96-.15-1.92-.59-1.92-1.4,0-.59,1.11-.96,2.07-.96h4.88c2.36,0,11.37-.52,14.4-.52,4.28,0,8.42.81,10.64,2.22,3.62,2.22,5.17,5.47,5.17,9.08,0,5.61-3.84,8.05-5.84,9.45ZM286.19,2.66c-.44,0-1.77.22-2.59.44-.15.07-.59.74-.66,1.18-.15,1.18-.3,3.32-.3,15.73,0,.37.37.96.81.96,2.66,0,6.87-.44,8.64-1.77,2.29-1.62,3.55-4.14,3.55-7.02,0-6.13-4.14-9.53-9.45-9.53ZM292.18,24.67c-1.7-.96-3.84-1.4-6.35-1.4-1.04,0-2.29.29-2.51.52-.22.22-.59.59-.59,3.47-.08,1.92.15,10.78.29,13,.07.59.44,1.77.96,2.36,1.26,1.33,3.32,2.51,4.65,2.51,4.73,0,9.01-4.73,9.01-10.86,0-4.36-2.22-7.83-5.47-9.6Z"/>
    <path class="st0" d="M331.4,21.2c.88,1.18,1.62,3.03,1.62,6.35,0,2.88-.3,11.67-.3,12.48,0,2.07,1.48,2.95,2.73,2.95.37,0,1.85-.59,2.59-.89.22-.15.29-.07.44.07.15.29.22.81.22,1.03,0,1.4-3.47,5.02-7.61,5.02-2.14,0-4.43-.67-5.54-3.55-.07-.3-.52-.44-.67-.3-1.85,1.33-4.87,2.66-5.84,3.1-.81.3-2.29.59-3.25.59-2.73,0-5.69-3.32-5.69-7.46,0-1.33.59-2.73,1.33-3.77.74-1.03,2-1.48,2.66-1.77,1.63-.67,8.35-2.51,10.05-3.03.89-.29,1.33-.81,1.33-1.11.07-.67.22-4.73.15-5.69-.07-1.77-1.63-4.73-4.95-4.73-1.03,0-1.85.15-2.36.52-.3.15-.44.89-.44,3.4,0,.29-.15.52-.29.66-.52.52-6.06,2.96-6.5,2.96s-.96-.59-.96-1.03c0-2.14,1.62-4.14,6.2-7.09,2.73-1.77,6.35-2.73,7.39-2.73,4.51,0,6.57,2.36,7.68,3.99ZM324.46,42.77c.37-.22.67-1.11.67-1.4.15-1.03.29-4.14.29-6.57,0-.29-.29-.74-.52-.74-1.25,0-4.65,1.11-5.98,1.92-.89.66-1.33,1.03-1.33,2.95,0,3.25,2.66,4.73,4.06,4.73.67,0,2.14-.44,2.81-.89Z"/>
    <path class="st0" d="M343.59,19.72c3.03-.59,7.68-2.36,8.86-2.66.37,0,.74.59.74.81-.15,2.51-.37,12.41-.37,16.69,0,2.29.07,4.88.15,7.46.08,2.22.96,2.51,2.88,3.1,1.11.37,1.63.81,1.63,1.4s-1.03.96-2.07.96c-.52,0-4.51-.22-6.13-.22-2.36,0-5.91.29-7.17.29-1.18,0-2.07-.44-2.07-.96s.52-.89,1.92-1.33c1.77-.52,2.59-1.4,2.73-2.14.3-1.03.44-6.28.44-11.52,0-1.55,0-5.76-.15-6.65-.07-.59-.96-1.33-2.51-2.66-.44-.44-.89-.81-.89-1.18,0-.59.81-1.18,2-1.4ZM353.34,6.35c0,2.44-2.59,4.51-4.43,4.51-.67,0-2.14-.44-2.95-1.26-.74-.74-1.4-1.77-1.4-3.25,0-.89.37-2.36,1.18-3.25.88-.81,2.29-1.33,3.69-1.33,2.59,0,3.92,2.88,3.92,4.58Z"/>
    <path class="st0" d="M382.81,20.31c1.7,1.63,2.81,3.91,2.81,6.5,0,.52-.74,1.77-1.63,1.77h-16.1c-.37,0-.74.22-.81.52-.22.59-.29,1.77-.29,2.66,0,1.62.89,5.02,2.29,6.87,1.84,2.36,4.95,3.69,8.2,3.69s5.24-.74,6.65-2.59c.3-.44.66-.89.96-.89s.67.52.67.96-.22,1.26-.59,1.85c-2.29,3.55-5.76,6.43-11.82,6.43-8.49,0-13.66-6.43-13.66-14.85,0-5.91,3.25-11.82,9.38-14.62,1.84-.89,4.06-1.4,6.06-1.4,2.96,0,5.98,1.18,7.9,3.1ZM367.52,25.56c-.07.37.22.74.52.74,1.92.07,4.21,0,7.9,0,1.18,0,2.59-.74,2.59-2.51,0-2.07-2.07-4.51-4.14-4.51-3.1,0-5.98,2.95-6.87,6.28Z"/>
  </g>
  <g>
    <path class="st0" d="M13.3,46.9c-1.07.44-2.84.85-4.43.85-2.18,0-4.21-.59-5.87-2.44C1.18,43.39-.04,39.96,0,35.42c.04-9.68,4.99-13,9.38-13,1.55,0,2.77.29,3.55.7l-.63,2.44c-.67-.33-1.55-.59-2.88-.59-3.1,0-6.46,2.47-6.46,10.19s2.92,10.16,5.91,10.16c.96,0,1.51-.18,1.74-.29v-8.12h-3.21v-2.36h5.91v12.37Z"/>
    <path class="st0" d="M16.73,34.27c0-1.51-.11-3.29-.15-4.62h2.55l.15,2.81h.07c.59-1.7,2.11-3.1,3.77-3.1.22,0,.41.04.59.04v2.92c-.18-.04-.37-.04-.59-.04-1.81,0-3.14,1.66-3.43,3.73-.07.48-.11,1.03-.11,1.63v9.9h-2.84v-13.26Z"/>
    <path class="st0" d="M35.23,43.47c0,1.37,0,2.92.18,4.06h-2.58l-.19-1.88h-.11c-.77,1.37-2.03,2.18-3.55,2.18-2.4,0-4.25-2.03-4.25-5.1,0-4.47,3.58-6.46,7.61-6.5v-.55c0-2.4-.59-4.06-2.84-4.06-1.11,0-2.1.37-2.95.92l-.63-1.99c.74-.55,2.4-1.18,4.17-1.18,3.58,0,5.13,2.36,5.13,6.39v7.72ZM32.42,38.3c-1.48,0-4.91.26-4.91,4.14,0,2.33,1.18,3.18,2.18,3.18,1.26,0,2.33-.92,2.66-2.7.07-.33.07-.7.07-1v-3.62Z"/>
    <path class="st0" d="M38.15,34.27c0-2.11-.11-3.18-.15-4.62h2.47l.15,2.14h.07c.78-1.44,2.22-2.44,4.1-2.44,2.47,0,4.32,1.85,4.32,6.17v12h-2.84v-11.52c0-2.1-.41-4.25-2.47-4.25-1.18,0-2.33,1-2.7,2.92-.07.44-.11,1-.11,1.59v11.26h-2.84v-13.26Z"/>
    <path class="st0" d="M62.93,21.97v21.27c0,1.22.11,3.25.15,4.28h-2.44l-.18-2.25h-.11c-.59,1.29-1.85,2.55-3.73,2.55-3.03,0-5.21-3.29-5.21-9.16,0-6.35,2.62-9.31,5.39-9.31,1.29,0,2.55.63,3.25,2.14h.07v-9.53h2.81ZM60.12,36.45c0-.37,0-.77-.04-1.18-.19-1.85-1.29-3.47-2.66-3.47-2.36,0-3.18,3.29-3.18,6.87,0,3.77.96,6.79,3.03,6.79.89,0,2.11-.48,2.73-3.06.07-.33.11-.74.11-1.18v-4.76Z"/>
    <path class="st0" d="M68.69,38.85c.04,5.47,2.18,6.65,4.25,6.65,1.22,0,2.25-.3,2.96-.7l.44,2.11c-1,.55-2.51.85-3.92.85-4.28,0-6.5-3.51-6.5-8.97,0-5.8,2.44-9.42,6.02-9.42s5.1,3.84,5.1,7.9c0,.66,0,1.15-.04,1.59h-8.31ZM74.31,36.75c.07-3.58-1.29-5.17-2.66-5.17-1.85,0-2.81,2.73-2.92,5.17h5.58Z"/>
    <path class="st0" d="M101.19,36.82c-.18-3.29-.37-6.94-.26-9.75h-.15c-.55,2.77-1.22,5.72-1.99,8.64l-3.07,11.67h-1.81l-2.92-11.19c-.81-3.18-1.55-6.24-2.03-9.12h-.11c0,2.92-.15,6.39-.29,9.93l-.48,10.53h-2.55l1.48-24.89h3.07l2.92,11.38c.85,3.29,1.48,5.72,2,8.57h.11c.48-2.84,1.04-5.21,1.85-8.57l2.81-11.38h3.18l1.44,24.89h-2.66l-.52-10.71Z"/>
    <path class="st0" d="M117.21,43.47c0,1.37,0,2.92.19,4.06h-2.59l-.18-1.88h-.11c-.78,1.37-2.03,2.18-3.55,2.18-2.4,0-4.25-2.03-4.25-5.1,0-4.47,3.58-6.46,7.61-6.5v-.55c0-2.4-.59-4.06-2.84-4.06-1.11,0-2.11.37-2.95.92l-.63-1.99c.74-.55,2.4-1.18,4.17-1.18,3.58,0,5.13,2.36,5.13,6.39v7.72ZM114.41,38.3c-1.48,0-4.91.26-4.91,4.14,0,2.33,1.18,3.18,2.18,3.18,1.25,0,2.33-.92,2.66-2.7.07-.33.07-.7.07-1v-3.62Z"/>
    <path class="st0" d="M123.94,25.04c.04,1.11-.66,1.85-1.74,1.85-.92,0-1.63-.74-1.63-1.85s.74-1.85,1.66-1.85c1.04,0,1.7.74,1.7,1.85ZM120.87,47.53v-17.87h2.84v17.87h-2.84Z"/>
    <path class="st0" d="M127.63,44.58c.63.41,1.74.92,2.88.92,1.62,0,2.62-1,2.62-2.59,0-1.37-.48-2.29-2.29-3.51-2.33-1.51-3.58-3.03-3.58-5.1,0-2.88,2.14-4.95,4.91-4.95,1.4,0,2.47.48,3.21.92l-.77,2.14c-.67-.44-1.44-.77-2.36-.77-1.55,0-2.33,1.11-2.33,2.25,0,1.22.44,1.88,2.22,3.1,2.07,1.33,3.69,2.95,3.69,5.43,0,3.58-2.44,5.32-5.36,5.32-1.33,0-2.77-.41-3.55-1.03l.7-2.14Z"/>
    <path class="st0" d="M149.71,38.59c0,6.91-3.21,9.23-5.95,9.23-3.21,0-5.8-2.92-5.8-9.19s2.92-9.27,5.98-9.27,5.76,2.99,5.76,9.23ZM140.81,38.59c0,2.95.52,6.98,3.1,6.98,2.44,0,2.92-4.21,2.92-6.98s-.48-6.94-2.99-6.94-3.03,4.21-3.03,6.94Z"/>
    <path class="st0" d="M152.68,34.27c0-2.11-.11-3.18-.15-4.62h2.47l.15,2.14h.07c.77-1.44,2.22-2.44,4.1-2.44,2.47,0,4.32,1.85,4.32,6.17v12h-2.84v-11.52c0-2.1-.41-4.25-2.48-4.25-1.18,0-2.33,1-2.7,2.92-.07.44-.11,1-.11,1.59v11.26h-2.84v-13.26Z"/>
  </g>
</svg>