<?xml version="1.0" encoding="UTF-8"?>
<svg id="_レイヤー_1" xmlns="http://www.w3.org/2000/svg" version="1.1" viewBox="0 0 249.46 104.89">
  <!-- Generator: Adobe Illustrator 30.3.0, SVG Export Plug-In . SVG Version: 2.1.3 Build 157)  -->
  <defs>
    <style>
      .st0 {
        fill: #fff;
      }
    </style>
  </defs>
  <g>
    <path class="st0" d="M4.36,46.04c2.45,0,6.45.18,9.08.18,3.54,0,9.81-.36,11.99-.36s2.81.46,2.81,1.09c0,.82-1.09,1.45-2,1.73-4.9,1.18-5.63,2.54-5.72,3.63-.64,4.54-.64,13.71-.64,27.16,0,6.27.09,13.71.45,16.8.18,2.18,2.91,3.45,3.27,3.54,1.73.27,5,.45,7.54.45,2,0,4.9-.09,6.54-.45.82-.18,1.82-.36,2.82-1.27,1.18-1.18,3.36-3.27,5.72-7.08.82-1.18,1.82-1.82,2.45-1.82s.73,1,.36,2.45c-1,3.18-2.36,8.17-2.91,10.72-.18.55-1.73,1.54-2.09,1.54-1.36,0-9.45-.64-27.88-.64-4.36,0-10.63.55-13.44.55-1.63,0-2.72-.36-2.72-1.18,0-.64.82-1.45,2.27-1.73,5-.91,5.81-2.54,6.27-6.54.18-2.27.45-11.81.45-24.88,0-8.81,0-12.35-.09-15.35-.09-3.09-.54-4.54-4.72-5.54-1.73-.45-2.54-1.09-2.54-1.73,0-.91,1.09-1.27,2.73-1.27Z"/>
    <path class="st0" d="M82,71.65c1.09,1.45,2,3.72,2,7.81,0,3.54-.36,14.35-.36,15.35,0,2.54,1.82,3.63,3.36,3.63.45,0,2.27-.73,3.18-1.09.27-.18.36-.09.54.09.18.36.27,1,.27,1.27,0,1.73-4.27,6.17-9.35,6.17-2.63,0-5.45-.82-6.81-4.36-.09-.36-.64-.54-.82-.36-2.27,1.63-5.99,3.27-7.17,3.81-1,.36-2.82.73-4,.73-3.36,0-6.99-4.09-6.99-9.17,0-1.63.73-3.36,1.63-4.63.91-1.27,2.45-1.82,3.27-2.18,2-.82,10.26-3.09,12.35-3.72,1.09-.36,1.63-1,1.63-1.36.09-.82.27-5.81.18-6.99-.09-2.18-2-5.81-6.08-5.81-1.27,0-2.27.18-2.91.64-.36.18-.55,1.09-.55,4.18,0,.36-.18.64-.36.82-.64.64-7.45,3.63-7.99,3.63s-1.18-.73-1.18-1.27c0-2.63,2-5.09,7.63-8.72,3.36-2.18,7.81-3.36,9.08-3.36,5.54,0,8.08,2.91,9.44,4.9h.01ZM73.47,98.17c.45-.27.82-1.36.82-1.73.18-1.27.36-5.09.36-8.08,0-.36-.36-.91-.64-.91-1.54,0-5.72,1.36-7.36,2.36-1.09.82-1.63,1.27-1.63,3.63,0,3.99,3.27,5.81,4.99,5.81.82,0,2.63-.55,3.45-1.09h.01Z"/>
    <path class="st0" d="M142.3,71.11c-.27.09-.18.82.09.82,6.27,2.63,10.9,7.17,10.9,14.99,0,5.99-3.36,10.26-7.72,13.17-4.36,3.09-12.62,3.99-16.26,3.99-2.54,0-12.53-.18-16.62-.27-3.27-.09-5.45.09-6.9.09-1.63,0-2.91-.64-2.91-1.45s1.54-1.36,2.54-1.54c5.54-1.09,5.9-2.45,6.27-5.54.18-1.91.73-10.99.73-28.97,0-7.72-.27-12.35-.55-13.62-.45-2-1-2.73-5.72-3.63-1.18-.18-2.36-.73-2.36-1.73,0-.73,1.36-1.18,2.54-1.18h6c2.91,0,13.98-.64,17.71-.64,5.27,0,10.35,1,13.08,2.72,4.45,2.73,6.36,6.72,6.36,11.17,0,6.9-4.72,9.9-7.18,11.62h0ZM127.23,48.86c-.55,0-2.18.27-3.18.55-.18.09-.73.91-.82,1.45-.18,1.45-.36,4.09-.36,19.35,0,.45.45,1.18,1,1.18,3.27,0,8.45-.55,10.63-2.18,2.82-2,4.36-5.09,4.36-8.63,0-7.54-5.09-11.72-11.62-11.72h0ZM134.59,75.92c-2.09-1.18-4.72-1.73-7.81-1.73-1.27,0-2.81.36-3.09.64s-.72.73-.72,4.27c-.09,2.36.18,13.26.36,15.99.09.72.54,2.18,1.18,2.91,1.54,1.63,4.09,3.09,5.72,3.09,5.81,0,11.08-5.81,11.08-13.35,0-5.36-2.73-9.63-6.72-11.81h0Z"/>
    <path class="st0" d="M182.8,71.65c1.09,1.45,2,3.72,2,7.81,0,3.54-.36,14.35-.36,15.35,0,2.54,1.82,3.63,3.36,3.63.45,0,2.27-.73,3.18-1.09.27-.18.36-.09.55.09.18.36.27,1,.27,1.27,0,1.73-4.27,6.17-9.35,6.17-2.63,0-5.45-.82-6.81-4.36-.09-.36-.63-.54-.82-.36-2.27,1.63-5.99,3.27-7.17,3.81-1,.36-2.82.73-4,.73-3.36,0-6.99-4.09-6.99-9.17,0-1.63.73-3.36,1.63-4.63.91-1.27,2.45-1.82,3.27-2.18,2-.82,10.26-3.09,12.35-3.72,1.09-.36,1.63-1,1.63-1.36.09-.82.27-5.81.18-6.99-.09-2.18-2-5.81-6.08-5.81-1.27,0-2.27.18-2.91.64-.36.18-.54,1.09-.54,4.18,0,.36-.18.64-.36.82-.64.64-7.45,3.63-7.99,3.63s-1.18-.73-1.18-1.27c0-2.63,2-5.09,7.63-8.72,3.36-2.18,7.81-3.36,9.08-3.36,5.54,0,8.08,2.91,9.44,4.9h-.01ZM174.26,98.17c.45-.27.82-1.36.82-1.73.18-1.27.36-5.09.36-8.08,0-.36-.36-.91-.64-.91-1.54,0-5.72,1.36-7.36,2.36-1.09.82-1.63,1.27-1.63,3.63,0,3.99,3.27,5.81,4.99,5.81.82,0,2.63-.55,3.45-1.09h0Z"/>
    <path class="st0" d="M197.78,69.83c3.72-.73,9.44-2.91,10.9-3.27.45,0,.91.73.91,1-.18,3.09-.46,15.26-.46,20.53,0,2.82.09,5.99.18,9.17.09,2.73,1.18,3.09,3.54,3.82,1.36.45,2,1,2,1.73s-1.27,1.18-2.54,1.18c-.63,0-5.54-.27-7.54-.27-2.91,0-7.27.36-8.81.36-1.45,0-2.54-.54-2.54-1.18s.64-1.09,2.36-1.63c2.18-.64,3.18-1.73,3.36-2.63.36-1.27.55-7.72.55-14.17,0-1.91,0-7.08-.18-8.17-.09-.73-1.18-1.63-3.09-3.27-.55-.55-1.09-1-1.09-1.45,0-.73,1-1.45,2.45-1.73v-.02ZM209.77,53.4c0,3-3.18,5.54-5.45,5.54-.82,0-2.64-.55-3.63-1.54-.91-.91-1.73-2.18-1.73-4,0-1.09.45-2.91,1.45-3.99,1.09-1,2.81-1.63,4.54-1.63,3.18,0,4.81,3.54,4.81,5.63h.01Z"/>
    <path class="st0" d="M246.01,70.56c2.09,2,3.45,4.81,3.45,7.99,0,.63-.91,2.18-2,2.18h-19.8c-.45,0-.91.27-1,.64-.27.73-.36,2.18-.36,3.27,0,2,1.09,6.18,2.81,8.45,2.27,2.91,6.09,4.54,10.08,4.54s6.45-.91,8.17-3.18c.36-.55.82-1.09,1.18-1.09s.82.63.82,1.18-.27,1.54-.73,2.27c-2.82,4.36-7.08,7.9-14.53,7.9-10.44,0-16.8-7.9-16.8-18.25,0-7.27,4-14.53,11.53-17.98,2.27-1.09,5-1.73,7.45-1.73,3.63,0,7.36,1.45,9.72,3.82h.01ZM227.2,77.01c-.09.45.27.91.64.91,2.36.09,5.18,0,9.72,0,1.45,0,3.18-.91,3.18-3.09,0-2.54-2.54-5.54-5.09-5.54-3.81,0-7.36,3.63-8.45,7.72Z"/>
  </g>
  <g>
    <path class="st0" d="M65.03,16.1c-.92.33-2.75.88-4.9.88-2.41,0-4.4-.62-5.97-2.11-1.37-1.33-2.23-3.46-2.23-5.94.02-4.76,3.29-8.24,8.64-8.24,1.85,0,3.29.4,3.98.73l-.5,1.68c-.85-.38-1.92-.69-3.53-.69-3.88,0-6.42,2.42-6.42,6.42s2.44,6.44,6.16,6.44c1.35,0,2.27-.19,2.75-.43v-4.76h-3.24v-1.66h5.26v7.67h0Z"/>
    <path class="st0" d="M68.05,8.93c0-1.35-.02-2.51-.09-3.57h1.82l.07,2.25h.09c.52-1.54,1.78-2.51,3.17-2.51.24,0,.4.02.59.07v1.96c-.21-.05-.43-.07-.71-.07-1.47,0-2.51,1.11-2.79,2.68-.05.29-.09.61-.09.97v6.11h-2.06v-7.88h0Z"/>
    <path class="st0" d="M83.75,14.07c0,.99.05,1.96.19,2.75h-1.89l-.17-1.44h-.07c-.64.9-1.87,1.7-3.5,1.7-2.32,0-3.5-1.63-3.5-3.29,0-2.77,2.46-4.29,6.89-4.26v-.24c0-.94-.26-2.65-2.6-2.65-1.07,0-2.18.33-2.98.85l-.47-1.37c.95-.61,2.32-1.02,3.76-1.02,3.5,0,4.36,2.39,4.36,4.69v4.29h-.02ZM81.74,10.96c-2.27-.05-4.85.36-4.85,2.58,0,1.35.9,1.99,1.97,1.99,1.49,0,2.44-.95,2.77-1.92.07-.21.12-.45.12-.66v-1.99h-.01Z"/>
    <path class="st0" d="M86.43,8.45c0-1.18-.02-2.15-.09-3.1h1.85l.12,1.89h.05c.57-1.09,1.89-2.15,3.79-2.15,1.59,0,4.05.95,4.05,4.88v6.84h-2.08v-6.6c0-1.85-.69-3.39-2.65-3.39-1.37,0-2.44.97-2.79,2.13-.09.26-.14.62-.14.97v6.89h-2.08v-8.36h-.03Z"/>
    <path class="st0" d="M108.89,0v13.85c0,1.02.02,2.18.09,2.96h-1.87l-.09-1.99h-.05c-.64,1.28-2.04,2.25-3.91,2.25-2.77,0-4.9-2.34-4.9-5.82-.02-3.81,2.34-6.16,5.14-6.16,1.75,0,2.94.83,3.46,1.75h.05V0h2.08ZM106.8,10.02c0-.26-.02-.62-.09-.88-.31-1.33-1.44-2.42-3.01-2.42-2.15,0-3.43,1.89-3.43,4.43,0,2.32,1.14,4.24,3.39,4.24,1.4,0,2.67-.92,3.05-2.49.07-.29.09-.57.09-.9v-1.99h0Z"/>
    <path class="st0" d="M113.37,11.46c.05,2.82,1.85,3.98,3.93,3.98,1.49,0,2.39-.26,3.17-.59l.36,1.49c-.73.33-1.99.73-3.81.73-3.53,0-5.64-2.34-5.64-5.8s2.04-6.18,5.38-6.18c3.74,0,4.74,3.29,4.74,5.4,0,.43-.05.76-.07.97h-8.06ZM119.48,9.97c.02-1.32-.55-3.39-2.89-3.39-2.11,0-3.03,1.94-3.2,3.39,0,0,6.09,0,6.09,0Z"/>
    <path class="st0" d="M142.62,9.8c-.12-2.23-.26-4.9-.24-6.89h-.07c-.54,1.87-1.21,3.88-2.01,6.06l-2.82,7.74h-1.56l-2.58-7.6c-.76-2.25-1.4-4.31-1.85-6.2h-.05c-.05,1.99-.17,4.66-.31,7.05l-.43,6.84h-1.96l1.11-15.96h2.63l2.72,7.72c.66,1.97,1.21,3.72,1.61,5.37h.07c.4-1.61.97-3.36,1.68-5.37l2.84-7.72h2.63l.99,15.96h-2.01l-.4-7.01h0Z"/>
    <path class="st0" d="M156.11,14.07c0,.99.05,1.96.19,2.75h-1.89l-.17-1.44h-.07c-.64.9-1.87,1.7-3.5,1.7-2.32,0-3.5-1.63-3.5-3.29,0-2.77,2.46-4.29,6.89-4.26v-.24c0-.94-.26-2.65-2.6-2.65-1.06,0-2.18.33-2.98.85l-.47-1.37c.95-.61,2.32-1.02,3.76-1.02,3.5,0,4.36,2.39,4.36,4.69v4.29h-.02ZM154.1,10.96c-2.27-.05-4.85.36-4.85,2.58,0,1.35.9,1.99,1.97,1.99,1.49,0,2.44-.95,2.77-1.92.07-.21.12-.45.12-.66v-1.99h0Z"/>
    <path class="st0" d="M161.58,2.13c.03.71-.5,1.28-1.32,1.28-.73,0-1.25-.57-1.25-1.28s.54-1.3,1.3-1.3,1.28.57,1.28,1.3h0ZM159.27,16.81V5.35h2.08v11.46h-2.08Z"/>
    <path class="st0" d="M164.81,14.68c.62.4,1.7.83,2.75.83,1.52,0,2.22-.76,2.22-1.7,0-.99-.59-1.54-2.13-2.11-2.06-.73-3.03-1.87-3.03-3.24,0-1.84,1.49-3.36,3.95-3.36,1.16,0,2.18.33,2.82.71l-.52,1.52c-.45-.28-1.28-.66-2.34-.66-1.23,0-1.92.71-1.92,1.56,0,.95.69,1.37,2.18,1.94,1.99.76,3.01,1.75,3.01,3.46,0,2.01-1.56,3.46-4.29,3.46-1.25,0-2.42-.33-3.22-.8l.52-1.59v-.02Z"/>
    <path class="st0" d="M184.72,10.99c0,4.24-2.94,6.08-5.71,6.08-3.1,0-5.49-2.27-5.49-5.9,0-3.83,2.51-6.08,5.68-6.08s5.52,2.39,5.52,5.9h0ZM175.63,11.1c0,2.51,1.44,4.4,3.48,4.4s3.48-1.87,3.48-4.45c0-1.94-.97-4.4-3.43-4.4s-3.53,2.27-3.53,4.45Z"/>
    <path class="st0" d="M187.22,8.45c0-1.18-.02-2.15-.09-3.1h1.85l.12,1.89h.05c.57-1.09,1.89-2.15,3.79-2.15,1.59,0,4.05.95,4.05,4.88v6.84h-2.08v-6.6c0-1.85-.69-3.39-2.65-3.39-1.37,0-2.44.97-2.79,2.13-.09.26-.14.62-.14.97v6.89h-2.08v-8.36h-.03Z"/>
  </g>
</svg>